<svg width="7" height="13" viewBox="0 0 7 13" fill="none" xmlns="http://www.w3.org/2000/svg">
<path d="M6.73994 1.67267C7.11145 1.26402 7.08133 0.631567 6.67267 0.26006C6.26401 -0.111447 5.63157 -0.0813301 5.26006 0.327327L6.73994 1.67267ZM1 6.5L0.26006 5.82733C-0.0866866 6.20875 -0.0866866 6.79125 0.26006 7.17267L1 6.5ZM5.26006 12.6727C5.63157 13.0813 6.26401 13.1114 6.67267 12.7399C7.08133 12.3684 7.11145 11.736 6.73994 11.3273L5.26006 12.6727ZM5.26006 0.327327L0.26006 5.82733L1.73994 7.17267L6.73994 1.67267L5.26006 0.327327ZM0.26006 7.17267L5.26006 12.6727L6.73994 11.3273L1.73994 5.82733L0.26006 7.17267Z" fill="#1E1E1E"/>
</svg>
