<svg width="7" height="13" viewBox="0 0 7 13" fill="none" xmlns="http://www.w3.org/2000/svg">
<path d="M0.26006 11.3273C-0.111447 11.736 -0.0813304 12.3684 0.327327 12.7399C0.735985 13.1114 1.36843 13.0813 1.73994 12.6727L0.26006 11.3273ZM6 6.5L6.73994 7.17267C7.08669 6.79125 7.08669 6.20875 6.73994 5.82733L6 6.5ZM1.73994 0.327327C1.36843 -0.0813306 0.735985 -0.111447 0.327328 0.26006C-0.08133 0.631567 -0.111447 1.26401 0.26006 1.67267L1.73994 0.327327ZM1.73994 12.6727L6.73994 7.17267L5.26006 5.82733L0.26006 11.3273L1.73994 12.6727ZM6.73994 5.82733L1.73994 0.327327L0.26006 1.67267L5.26006 7.17267L6.73994 5.82733Z" fill="#1E1E1E"/>
</svg>
