<svg width="51" height="50" viewBox="0 0 51 50" fill="none" xmlns="http://www.w3.org/2000/svg">
<circle cx="25.6666" cy="25" r="25" fill="black"/>
<circle cx="25.6666" cy="25" r="18.5185" fill="white"/>
<path d="M19.5829 30.8256C20.515 32 22.25 32 25.7198 32H26.2802C29.75 32 31.485 32 32.4171 30.8256M19.5829 30.8256C18.6507 29.6511 18.9704 27.8681 19.6099 24.3021C20.0646 21.7662 20.292 20.4982 21.1552 19.7491M19.5829 30.8256C19.5829 30.8256 19.5829 30.8256 19.5829 30.8256ZM32.4171 30.8256C33.3493 29.6511 33.0296 27.8681 32.3901 24.3021C31.9354 21.7662 31.708 20.4982 30.8448 19.7491M32.4171 30.8256C32.4171 30.8256 32.4171 30.8256 32.4171 30.8256ZM30.8448 19.7491C29.9816 19 28.7478 19 26.2802 19H25.7198C23.2522 19 22.0184 19 21.1552 19.7491M30.8448 19.7491C30.8448 19.7491 30.8448 19.7491 30.8448 19.7491ZM21.1552 19.7491C21.1552 19.7491 21.1552 19.7491 21.1552 19.7491Z" stroke="black" stroke-width="1.5"/>
<path d="M23.2724 22.1818C23.172 21.7799 23.4163 21.3728 23.8182 21.2724C24.2201 21.172 24.6272 21.4163 24.7276 21.8182L23.2724 22.1818ZM27.2724 21.8182C27.3728 21.4163 27.7799 21.172 28.1818 21.2724C28.5837 21.3728 28.828 21.7799 28.7276 22.1818L27.2724 21.8182ZM24.7276 21.8182C24.9789 22.824 25.5728 23.25 26 23.25V24.75C24.5804 24.75 23.6033 23.5064 23.2724 22.1818L24.7276 21.8182ZM26 23.25C26.4272 23.25 27.0211 22.824 27.2724 21.8182L28.7276 22.1818C28.3967 23.5064 27.4196 24.75 26 24.75V23.25Z" fill="black"/>
</svg>
