<svg width="50" height="14" viewBox="0 0 50 14" fill="none" xmlns="http://www.w3.org/2000/svg">
<path d="M1 7.75C0.585785 7.75 0.25 7.41421 0.25 7C0.25 6.58579 0.585785 6.25 1 6.25V7.75ZM48.5 7L49.0303 6.46967C49.3232 6.76256 49.3232 7.23744 49.0303 7.53033L48.5 7ZM41.9697 1.53033C41.6768 1.23744 41.6768 0.762563 41.9697 0.46967C42.2626 0.176777 42.7374 0.176777 43.0303 0.46967L41.9697 1.53033ZM43.0303 13.5303C42.7374 13.8232 42.2626 13.8232 41.9697 13.5303C41.6768 13.2374 41.6768 12.7626 41.9697 12.4697L43.0303 13.5303ZM1 6.25H48.5V7.75H1V6.25ZM47.9697 7.53033L41.9697 1.53033L43.0303 0.46967L49.0303 6.46967L47.9697 7.53033ZM49.0303 7.53033L43.0303 13.5303L41.9697 12.4697L47.9697 6.46967L49.0303 7.53033Z" fill="black"/>
</svg>
